<?xml version="1.0" encoding="UTF-8" standalone="no"?>
<!-- Created with Inkscape (http://www.inkscape.org/) -->

<svg
   xmlns:dc="http://purl.org/dc/elements/1.1/"
   xmlns:cc="http://creativecommons.org/ns#"
   xmlns:rdf="http://www.w3.org/1999/02/22-rdf-syntax-ns#"
   xmlns:svg="http://www.w3.org/2000/svg"
   xmlns="http://www.w3.org/2000/svg"
   xmlns:sodipodi="http://sodipodi.sourceforge.net/DTD/sodipodi-0.dtd"
   xmlns:inkscape="http://www.inkscape.org/namespaces/inkscape"
   width="449.73999"
   height="584.73999"
   id="svg2"
   version="1.1"
   inkscape:version="0.47 r22583"
   sodipodi:docname="sim_card.svg">
  <sodipodi:namedview
     id="base"
     pagecolor="#ffffff"
     bordercolor="#666666"
     borderopacity="1.0"
     inkscape:pageopacity="0.0"
     inkscape:pageshadow="2"
     inkscape:zoom="0.49497475"
     inkscape:cx="913.85429"
     inkscape:cy="30.300361"
     inkscape:document-units="px"
     inkscape:current-layer="layer1"
     showgrid="false"
     inkscape:window-width="1680"
     inkscape:window-height="975"
     inkscape:window-x="0"
     inkscape:window-y="24"
     inkscape:window-maximized="1" />
  <defs
     id="defs4">
    <inkscape:perspective
       sodipodi:type="inkscape:persp3d"
       inkscape:vp_x="0 : 526.18109 : 1"
       inkscape:vp_y="0 : 1000 : 0"
       inkscape:vp_z="744.09448 : 526.18109 : 1"
       inkscape:persp3d-origin="372.04724 : 350.78739 : 1"
       id="perspective10" />
    <filter
       inkscape:collect="always"
       id="filter3891"
       color-interpolation-filters="sRGB">
      <feGaussianBlur
         inkscape:collect="always"
         stdDeviation="7.2374999"
         id="feGaussianBlur3893" />
    </filter>
  </defs>
  <metadata
     id="metadata7">
    <rdf:RDF>
      <cc:Work
         rdf:about="">
        <dc:format>image/svg+xml</dc:format>
        <dc:type
           rdf:resource="http://purl.org/dc/dcmitype/StillImage" />
        <dc:title></dc:title>
      </cc:Work>
    </rdf:RDF>
  </metadata>
  <g
     inkscape:label="Layer 1"
     inkscape:groupmode="layer"
     id="layer1"
     transform="translate(-152.73152,-162.35336)">
    <path
       id="path3098"
       d="m 200.10152,179.72336 c -16.62,0 -30,13.38 -30,30 l 0,490 c 0,16.62 13.38,30 30,30 l 354.99999,0 c 16.62,0 30,-13.38 30,-30 l 0,-444.1875 -75.7812,-75.8125 -309.21878,0 z"
       style="fill:#333333;fill-opacity:1;stroke:none;filter:url(#filter3891)" />
    <path
       style="fill:#cccccc;fill-opacity:1;stroke:none"
       d="m 200.10152,179.72336 c -16.62,0 -30,13.38 -30,30 l 0,490 c 0,16.62 13.38,30 30,30 l 354.99999,0 c 16.62,0 30,-13.38 30,-30 l 0,-444.1875 -75.7812,-75.8125 -309.21879,0 z"
       id="rect2816" />
    <rect
       style="fill:#ffcc00;fill-opacity:1;stroke:#000000;stroke-width:6;stroke-miterlimit:4;stroke-dasharray:none"
       id="rect2818"
       width="250"
       height="250"
       x="252.24434"
       y="417.44269"
       rx="30"
       ry="30" />
    <path
       id="path3629"
       d="m 504.24441,483.00461 0,2.875 -73.7188,0 -16.5,16.5 0,40.625 90.2188,0 0,2.875 -90.2188,0 0,40.625 16.5,16.5 73.7188,0 0,2.875 -74.9063,0 -18.1875,-18.1875 0.25,-0.25 -0.25,0 0,-85.71875 0.5313,0 -0.5313,-0.53125 18.1875,-18.1875 74.9063,0 z"
       style="fill:#000000;fill-opacity:1;stroke:none" />
    <path
       style="fill:#000000;fill-opacity:1;stroke:none"
       d="m 341.00781,585.00461 0,2.875 34.8125,0 0,81.5625 2.8437,0 0,-81.5625 34.8438,0 0,-2.875 -72.5,0 z"
       id="rect3596" />
    <path
       style="fill:#000000;fill-opacity:1;stroke:none"
       d="m 375.82031,418.16086 0,82.84375 -34.8125,0 0,2.875 37.6562,0 0,-2.15625 0,-0.71875 0,-82.84375 -2.8437,0 z"
       id="rect3598" />
    <path
       style="fill:#000000;fill-opacity:1;stroke:none"
       d="m 250.25781,483.00461 0,2.875 73.7187,0 16.5,16.5 0,40.625 -90.2187,0 0,2.875 90.2187,0 0,40.625 -16.5,16.5 -73.7187,0 0,2.875 74.9062,0 18.1875,-18.1875 -0.25,-0.25 0.25,0 0,-85.71875 -0.5312,0 0.5312,-0.53125 -18.1875,-18.1875 -74.9062,0 z"
       id="rect3602" />
  </g>
</svg>
